<svg width="166" height="56" viewBox="0 0 166 56" fill="none" xmlns="http://www.w3.org/2000/svg">
<rect width="56" height="56" rx="14" fill="#007FFF"/>
<path d="M14 28L23.3224 37L42 19" stroke="white" stroke-width="6" stroke-linecap="round" stroke-linejoin="round"/>
<path d="M95.58 14V18.16H86.66V42H82.5V18.16H73.6V14L95.58 14Z" fill="#3F3D56"/>
<path d="M112.108 22H116.268V42H112.088L111.928 39.1C111.342 40.1267 110.548 40.9533 109.548 41.58C108.548 42.2067 107.368 42.52 106.008 42.52C104.542 42.52 103.162 42.2467 101.868 41.7C100.575 41.14 99.4351 40.3667 98.4484 39.38C97.4751 38.3933 96.7151 37.26 96.1684 35.98C95.6218 34.6867 95.3484 33.3 95.3484 31.82C95.3484 30.3933 95.6151 29.0533 96.1484 27.8C96.6818 26.5333 97.4218 25.4267 98.3684 24.48C99.3151 23.5333 100.408 22.7933 101.648 22.26C102.902 21.7133 104.242 21.44 105.668 21.44C107.122 21.44 108.402 21.7733 109.508 22.44C110.628 23.0933 111.555 23.9333 112.288 24.96L112.108 22ZM105.908 38.5C107.082 38.5 108.108 38.2133 108.988 37.64C109.868 37.0533 110.548 36.2667 111.028 35.28C111.522 34.2933 111.768 33.2 111.768 32C111.768 30.7867 111.522 29.6867 111.028 28.7C110.535 27.7133 109.848 26.9333 108.968 26.36C108.102 25.7733 107.082 25.48 105.908 25.48C104.748 25.48 103.688 25.7733 102.728 26.36C101.768 26.9467 101.008 27.7333 100.448 28.72C99.8884 29.7067 99.6084 30.8 99.6084 32C99.6084 33.2133 99.8951 34.3133 100.468 35.3C101.055 36.2733 101.822 37.0533 102.768 37.64C103.728 38.2133 104.775 38.5 105.908 38.5Z" fill="#3F3D56"/>
<path d="M126.259 42.38C125.206 42.3133 124.179 42.1 123.179 41.74C122.179 41.38 121.299 40.8933 120.539 40.28C119.793 39.6533 119.233 38.92 118.859 38.08L122.399 36.56C122.573 36.92 122.873 37.2733 123.299 37.62C123.739 37.9667 124.253 38.2533 124.839 38.48C125.426 38.6933 126.039 38.8 126.679 38.8C127.306 38.8 127.886 38.7133 128.419 38.54C128.966 38.3533 129.413 38.0733 129.759 37.7C130.106 37.3267 130.279 36.88 130.279 36.36C130.279 35.7733 130.079 35.32 129.679 35C129.293 34.6667 128.806 34.4133 128.219 34.24C127.633 34.0667 127.046 33.9 126.459 33.74C125.153 33.4467 123.953 33.0467 122.859 32.54C121.779 32.02 120.919 31.36 120.279 30.56C119.639 29.7467 119.319 28.7533 119.319 27.58C119.319 26.3 119.666 25.1933 120.359 24.26C121.053 23.3133 121.959 22.5867 123.079 22.08C124.213 21.5733 125.419 21.32 126.699 21.32C128.299 21.32 129.766 21.66 131.099 22.34C132.433 23.02 133.453 23.9533 134.159 25.14L130.859 27.1C130.659 26.7 130.359 26.34 129.959 26.02C129.559 25.7 129.106 25.4467 128.599 25.26C128.093 25.06 127.566 24.9467 127.019 24.92C126.339 24.8933 125.706 24.9733 125.119 25.16C124.546 25.3333 124.086 25.6133 123.739 26C123.393 26.3867 123.219 26.88 123.219 27.48C123.219 28.0667 123.426 28.5067 123.839 28.8C124.253 29.08 124.773 29.3067 125.399 29.48C126.039 29.6533 126.693 29.8467 127.359 30.06C128.546 30.4333 129.659 30.8933 130.699 31.44C131.739 31.9733 132.579 32.6333 133.219 33.42C133.859 34.2067 134.166 35.1667 134.139 36.3C134.139 37.5533 133.759 38.6533 132.999 39.6C132.253 40.5467 131.279 41.2667 130.079 41.76C128.879 42.2533 127.606 42.46 126.259 42.38Z" fill="#3F3D56"/>
<path d="M154.664 42H149.864L144.944 33.52L141.724 37.36V42H137.564V12H141.724V30.9L149.164 22L154.604 22L147.784 30.14L154.664 42Z" fill="#3F3D56"/>
<path d="M157.838 22H161.998V42H157.838V22ZM159.958 19.1C159.318 19.1 158.784 18.8933 158.358 18.48C157.931 18.0667 157.718 17.5467 157.718 16.92C157.718 16.3067 157.931 15.7933 158.358 15.38C158.784 14.9533 159.311 14.74 159.938 14.74C160.551 14.74 161.071 14.9533 161.498 15.38C161.924 15.7933 162.138 16.3067 162.138 16.92C162.138 17.5467 161.924 18.0667 161.498 18.48C161.084 18.8933 160.571 19.1 159.958 19.1Z" fill="#3F3D56"/>
</svg>
